<mxfile host="Electron" agent="Mozilla/5.0 (Windows NT 10.0; Win64; x64) AppleWebKit/537.36 (KHTML, like Gecko) draw.io/24.7.5 Chrome/126.0.6478.183 Electron/31.3.0 Safari/537.36" version="24.7.5">
  <diagram id="R2lEEEUBdFMjLlhIrx00" name="Page-1">
    <mxGraphModel dx="1999" dy="1340" grid="1" gridSize="10" guides="1" tooltips="1" connect="1" arrows="1" fold="1" page="1" pageScale="1" pageWidth="850" pageHeight="1100" math="0" shadow="0" extFonts="Permanent Marker^https://fonts.googleapis.com/css?family=Permanent+Marker">
      <root>
        <mxCell id="0" />
        <mxCell id="1" parent="0" />
        <mxCell id="qooXfaipe-NSgSSvknty-19" value="Solicita" style="shape=rhombus;perimeter=rhombusPerimeter;whiteSpace=wrap;html=1;align=center;" vertex="1" parent="1">
          <mxGeometry x="400" y="220" width="120" height="60" as="geometry" />
        </mxCell>
        <mxCell id="qooXfaipe-NSgSSvknty-20" value="Pedido" style="whiteSpace=wrap;html=1;align=center;" vertex="1" parent="1">
          <mxGeometry x="630" y="230" width="100" height="40" as="geometry" />
        </mxCell>
        <mxCell id="qooXfaipe-NSgSSvknty-21" value="Forma_Pago" style="ellipse;whiteSpace=wrap;html=1;align=center;" vertex="1" parent="1">
          <mxGeometry x="530" y="120" width="100" height="40" as="geometry" />
        </mxCell>
        <mxCell id="qooXfaipe-NSgSSvknty-22" value="Fecha_Entrega" style="ellipse;whiteSpace=wrap;html=1;align=center;" vertex="1" parent="1">
          <mxGeometry x="505" y="340" width="100" height="40" as="geometry" />
        </mxCell>
        <mxCell id="qooXfaipe-NSgSSvknty-23" value="Fecha_Pedido" style="ellipse;whiteSpace=wrap;html=1;align=center;" vertex="1" parent="1">
          <mxGeometry x="755" y="340" width="100" height="40" as="geometry" />
        </mxCell>
        <mxCell id="qooXfaipe-NSgSSvknty-24" value="" style="endArrow=none;html=1;rounded=0;entryX=0;entryY=0;entryDx=0;entryDy=0;exitX=0.75;exitY=1;exitDx=0;exitDy=0;" edge="1" parent="1" source="qooXfaipe-NSgSSvknty-20" target="qooXfaipe-NSgSSvknty-23">
          <mxGeometry relative="1" as="geometry">
            <mxPoint x="590" y="320" as="sourcePoint" />
            <mxPoint x="750" y="320" as="targetPoint" />
          </mxGeometry>
        </mxCell>
        <mxCell id="qooXfaipe-NSgSSvknty-25" value="" style="endArrow=none;html=1;rounded=0;entryX=1;entryY=0;entryDx=0;entryDy=0;exitX=0.25;exitY=1;exitDx=0;exitDy=0;" edge="1" parent="1" source="qooXfaipe-NSgSSvknty-20" target="qooXfaipe-NSgSSvknty-22">
          <mxGeometry relative="1" as="geometry">
            <mxPoint x="610" y="290" as="sourcePoint" />
            <mxPoint x="650" y="366" as="targetPoint" />
          </mxGeometry>
        </mxCell>
        <mxCell id="qooXfaipe-NSgSSvknty-26" value="" style="endArrow=none;html=1;rounded=0;entryX=0.25;entryY=0;entryDx=0;entryDy=0;exitX=0.5;exitY=1;exitDx=0;exitDy=0;" edge="1" parent="1" source="qooXfaipe-NSgSSvknty-21" target="qooXfaipe-NSgSSvknty-20">
          <mxGeometry relative="1" as="geometry">
            <mxPoint x="660" y="170" as="sourcePoint" />
            <mxPoint x="700" y="246" as="targetPoint" />
          </mxGeometry>
        </mxCell>
        <mxCell id="qooXfaipe-NSgSSvknty-27" value="" style="fontSize=12;html=1;endArrow=ERmany;rounded=0;entryX=1;entryY=0.5;entryDx=0;entryDy=0;exitX=0;exitY=0.5;exitDx=0;exitDy=0;" edge="1" parent="1" source="qooXfaipe-NSgSSvknty-19" target="qooXfaipe-NSgSSvknty-1">
          <mxGeometry width="100" height="100" relative="1" as="geometry">
            <mxPoint x="380" y="260" as="sourcePoint" />
            <mxPoint x="450" y="150" as="targetPoint" />
          </mxGeometry>
        </mxCell>
        <mxCell id="qooXfaipe-NSgSSvknty-28" value="" style="fontSize=12;html=1;endArrow=ERone;endFill=1;rounded=0;entryX=0;entryY=0.5;entryDx=0;entryDy=0;exitX=1;exitY=0.5;exitDx=0;exitDy=0;" edge="1" parent="1" source="qooXfaipe-NSgSSvknty-19" target="qooXfaipe-NSgSSvknty-20">
          <mxGeometry width="100" height="100" relative="1" as="geometry">
            <mxPoint x="420" y="260" as="sourcePoint" />
            <mxPoint x="520" y="160" as="targetPoint" />
          </mxGeometry>
        </mxCell>
        <mxCell id="qooXfaipe-NSgSSvknty-29" value="Registro_Pedidos" style="ellipse;shape=doubleEllipse;margin=3;whiteSpace=wrap;html=1;align=center;" vertex="1" parent="1">
          <mxGeometry x="730" y="110" width="110" height="50" as="geometry" />
        </mxCell>
        <mxCell id="qooXfaipe-NSgSSvknty-30" value="" style="endArrow=none;html=1;rounded=0;entryX=0;entryY=1;entryDx=0;entryDy=0;exitX=0.75;exitY=0;exitDx=0;exitDy=0;" edge="1" parent="1" source="qooXfaipe-NSgSSvknty-20" target="qooXfaipe-NSgSSvknty-29">
          <mxGeometry relative="1" as="geometry">
            <mxPoint x="550" y="150" as="sourcePoint" />
            <mxPoint x="710" y="150" as="targetPoint" />
          </mxGeometry>
        </mxCell>
        <mxCell id="qooXfaipe-NSgSSvknty-31" value="Cajones de Productos" style="whiteSpace=wrap;html=1;align=center;" vertex="1" parent="1">
          <mxGeometry x="630" y="550" width="100" height="40" as="geometry" />
        </mxCell>
        <mxCell id="qooXfaipe-NSgSSvknty-32" value="" style="group" vertex="1" connectable="0" parent="1">
          <mxGeometry x="10" y="60" width="380" height="400" as="geometry" />
        </mxCell>
        <mxCell id="qooXfaipe-NSgSSvknty-1" value="Clientes" style="whiteSpace=wrap;html=1;align=center;" vertex="1" parent="qooXfaipe-NSgSSvknty-32">
          <mxGeometry x="180" y="170" width="100" height="40" as="geometry" />
        </mxCell>
        <mxCell id="qooXfaipe-NSgSSvknty-5" value="" style="endArrow=none;html=1;rounded=0;entryX=0.5;entryY=0;entryDx=0;entryDy=0;exitX=0.5;exitY=1;exitDx=0;exitDy=0;" edge="1" parent="qooXfaipe-NSgSSvknty-32" source="qooXfaipe-NSgSSvknty-2" target="qooXfaipe-NSgSSvknty-1">
          <mxGeometry relative="1" as="geometry">
            <mxPoint x="200" y="120" as="sourcePoint" />
            <mxPoint x="350" y="130" as="targetPoint" />
          </mxGeometry>
        </mxCell>
        <mxCell id="qooXfaipe-NSgSSvknty-9" value="" style="group" vertex="1" connectable="0" parent="qooXfaipe-NSgSSvknty-32">
          <mxGeometry x="80" width="300" height="100" as="geometry" />
        </mxCell>
        <mxCell id="qooXfaipe-NSgSSvknty-2" value="DNI" style="ellipse;whiteSpace=wrap;html=1;align=center;" vertex="1" parent="qooXfaipe-NSgSSvknty-9">
          <mxGeometry x="100" y="60" width="100" height="40" as="geometry" />
        </mxCell>
        <mxCell id="qooXfaipe-NSgSSvknty-3" value="Tipo_DNI" style="ellipse;whiteSpace=wrap;html=1;align=center;" vertex="1" parent="qooXfaipe-NSgSSvknty-9">
          <mxGeometry width="100" height="40" as="geometry" />
        </mxCell>
        <mxCell id="qooXfaipe-NSgSSvknty-4" value="Num_DNI" style="ellipse;whiteSpace=wrap;html=1;align=center;" vertex="1" parent="qooXfaipe-NSgSSvknty-9">
          <mxGeometry x="200" width="100" height="40" as="geometry" />
        </mxCell>
        <mxCell id="qooXfaipe-NSgSSvknty-7" value="" style="endArrow=none;html=1;rounded=0;entryX=1;entryY=0;entryDx=0;entryDy=0;exitX=0;exitY=1;exitDx=0;exitDy=0;" edge="1" parent="qooXfaipe-NSgSSvknty-9" source="qooXfaipe-NSgSSvknty-4" target="qooXfaipe-NSgSSvknty-2">
          <mxGeometry relative="1" as="geometry">
            <mxPoint x="210" y="30" as="sourcePoint" />
            <mxPoint x="210" y="100" as="targetPoint" />
          </mxGeometry>
        </mxCell>
        <mxCell id="qooXfaipe-NSgSSvknty-8" value="" style="endArrow=none;html=1;rounded=0;entryX=0;entryY=0;entryDx=0;entryDy=0;exitX=1;exitY=1;exitDx=0;exitDy=0;" edge="1" parent="qooXfaipe-NSgSSvknty-9" source="qooXfaipe-NSgSSvknty-3" target="qooXfaipe-NSgSSvknty-2">
          <mxGeometry relative="1" as="geometry">
            <mxPoint x="140" y="28" as="sourcePoint" />
            <mxPoint x="100" y="60" as="targetPoint" />
          </mxGeometry>
        </mxCell>
        <mxCell id="qooXfaipe-NSgSSvknty-15" value="" style="endArrow=none;html=1;rounded=0;entryX=0.5;entryY=0;entryDx=0;entryDy=0;exitX=0.5;exitY=1;exitDx=0;exitDy=0;" edge="1" parent="qooXfaipe-NSgSSvknty-32">
          <mxGeometry relative="1" as="geometry">
            <mxPoint x="229.5" y="210" as="sourcePoint" />
            <mxPoint x="229.5" y="280" as="targetPoint" />
          </mxGeometry>
        </mxCell>
        <mxCell id="qooXfaipe-NSgSSvknty-16" value="" style="group" vertex="1" connectable="0" parent="qooXfaipe-NSgSSvknty-32">
          <mxGeometry x="80" y="280" width="300" height="120" as="geometry" />
        </mxCell>
        <mxCell id="qooXfaipe-NSgSSvknty-10" value="Apellido_Cliente1" style="ellipse;whiteSpace=wrap;html=1;align=center;" vertex="1" parent="qooXfaipe-NSgSSvknty-16">
          <mxGeometry x="200" y="80" width="100" height="40" as="geometry" />
        </mxCell>
        <mxCell id="qooXfaipe-NSgSSvknty-11" value="Nombre_Cliente1" style="ellipse;whiteSpace=wrap;html=1;align=center;" vertex="1" parent="qooXfaipe-NSgSSvknty-16">
          <mxGeometry y="80" width="100" height="40" as="geometry" />
        </mxCell>
        <mxCell id="qooXfaipe-NSgSSvknty-12" value="&lt;u&gt;Nombre_Cliente&lt;/u&gt;" style="ellipse;whiteSpace=wrap;html=1;align=center;" vertex="1" parent="qooXfaipe-NSgSSvknty-16">
          <mxGeometry x="100" width="100" height="40" as="geometry" />
        </mxCell>
        <mxCell id="qooXfaipe-NSgSSvknty-13" value="" style="endArrow=none;html=1;rounded=0;entryX=0;entryY=0;entryDx=0;entryDy=0;exitX=1;exitY=1;exitDx=0;exitDy=0;" edge="1" parent="qooXfaipe-NSgSSvknty-16" source="qooXfaipe-NSgSSvknty-12" target="qooXfaipe-NSgSSvknty-10">
          <mxGeometry relative="1" as="geometry">
            <mxPoint x="179.5" y="40" as="sourcePoint" />
            <mxPoint x="179.5" y="110" as="targetPoint" />
          </mxGeometry>
        </mxCell>
        <mxCell id="qooXfaipe-NSgSSvknty-14" value="" style="endArrow=none;html=1;rounded=0;entryX=1;entryY=0;entryDx=0;entryDy=0;exitX=0;exitY=1;exitDx=0;exitDy=0;" edge="1" parent="qooXfaipe-NSgSSvknty-16" source="qooXfaipe-NSgSSvknty-12" target="qooXfaipe-NSgSSvknty-11">
          <mxGeometry relative="1" as="geometry">
            <mxPoint x="100" y="40" as="sourcePoint" />
            <mxPoint x="100" y="110" as="targetPoint" />
          </mxGeometry>
        </mxCell>
        <mxCell id="qooXfaipe-NSgSSvknty-17" value="Attribute" style="ellipse;shape=doubleEllipse;margin=3;whiteSpace=wrap;html=1;align=center;" vertex="1" parent="qooXfaipe-NSgSSvknty-32">
          <mxGeometry y="170" width="100" height="40" as="geometry" />
        </mxCell>
        <mxCell id="qooXfaipe-NSgSSvknty-18" value="" style="endArrow=none;html=1;rounded=0;entryX=0;entryY=0.5;entryDx=0;entryDy=0;" edge="1" parent="qooXfaipe-NSgSSvknty-32" target="qooXfaipe-NSgSSvknty-1">
          <mxGeometry relative="1" as="geometry">
            <mxPoint x="100" y="189.5" as="sourcePoint" />
            <mxPoint x="260" y="189.5" as="targetPoint" />
          </mxGeometry>
        </mxCell>
        <mxCell id="qooXfaipe-NSgSSvknty-34" value="&lt;u&gt;Nombre_Cajón&lt;/u&gt;" style="ellipse;whiteSpace=wrap;html=1;align=center;" vertex="1" parent="1">
          <mxGeometry x="530" y="660" width="100" height="40" as="geometry" />
        </mxCell>
        <mxCell id="qooXfaipe-NSgSSvknty-35" value="" style="endArrow=none;html=1;rounded=0;entryX=0.25;entryY=1;entryDx=0;entryDy=0;exitX=1;exitY=0;exitDx=0;exitDy=0;" edge="1" parent="1" source="qooXfaipe-NSgSSvknty-34" target="qooXfaipe-NSgSSvknty-31">
          <mxGeometry relative="1" as="geometry">
            <mxPoint x="470" y="630" as="sourcePoint" />
            <mxPoint x="630" y="630" as="targetPoint" />
          </mxGeometry>
        </mxCell>
        <mxCell id="qooXfaipe-NSgSSvknty-36" value="Descripción" style="ellipse;whiteSpace=wrap;html=1;align=center;" vertex="1" parent="1">
          <mxGeometry x="730" y="660" width="100" height="40" as="geometry" />
        </mxCell>
        <mxCell id="qooXfaipe-NSgSSvknty-37" value="" style="endArrow=none;html=1;rounded=0;entryX=1;entryY=0.25;entryDx=0;entryDy=0;exitX=0;exitY=0;exitDx=0;exitDy=0;" edge="1" parent="1" source="qooXfaipe-NSgSSvknty-36" target="qooXfaipe-NSgSSvknty-31">
          <mxGeometry relative="1" as="geometry">
            <mxPoint x="700" y="680" as="sourcePoint" />
            <mxPoint x="740" y="604" as="targetPoint" />
          </mxGeometry>
        </mxCell>
        <mxCell id="qooXfaipe-NSgSSvknty-38" value="Productos_en_el_Cajón" style="ellipse;shape=doubleEllipse;margin=3;whiteSpace=wrap;html=1;align=center;" vertex="1" parent="1">
          <mxGeometry x="605" y="745" width="150" height="60" as="geometry" />
        </mxCell>
        <mxCell id="qooXfaipe-NSgSSvknty-39" value="Cant_Producto" style="ellipse;whiteSpace=wrap;html=1;align=center;" vertex="1" parent="1">
          <mxGeometry x="630" y="885" width="100" height="40" as="geometry" />
        </mxCell>
        <mxCell id="qooXfaipe-NSgSSvknty-40" value="" style="endArrow=none;html=1;rounded=0;exitX=0.5;exitY=1;exitDx=0;exitDy=0;entryX=0.5;entryY=0;entryDx=0;entryDy=0;" edge="1" parent="1" source="qooXfaipe-NSgSSvknty-38" target="qooXfaipe-NSgSSvknty-39">
          <mxGeometry relative="1" as="geometry">
            <mxPoint x="600" y="915" as="sourcePoint" />
            <mxPoint x="760" y="915" as="targetPoint" />
          </mxGeometry>
        </mxCell>
        <mxCell id="qooXfaipe-NSgSSvknty-41" value="" style="endArrow=none;html=1;rounded=0;exitX=0.5;exitY=1;exitDx=0;exitDy=0;entryX=0.5;entryY=0;entryDx=0;entryDy=0;" edge="1" parent="1" source="qooXfaipe-NSgSSvknty-31" target="qooXfaipe-NSgSSvknty-38">
          <mxGeometry relative="1" as="geometry">
            <mxPoint x="600" y="915" as="sourcePoint" />
            <mxPoint x="760" y="915" as="targetPoint" />
          </mxGeometry>
        </mxCell>
        <mxCell id="qooXfaipe-NSgSSvknty-42" value="Se pide" style="shape=rhombus;perimeter=rhombusPerimeter;whiteSpace=wrap;html=1;align=center;" vertex="1" parent="1">
          <mxGeometry x="620" y="380" width="120" height="60" as="geometry" />
        </mxCell>
        <mxCell id="qooXfaipe-NSgSSvknty-45" value="" style="fontSize=12;html=1;endArrow=ERone;endFill=1;rounded=0;exitX=0.5;exitY=0;exitDx=0;exitDy=0;entryX=0.5;entryY=1;entryDx=0;entryDy=0;" edge="1" parent="1" source="qooXfaipe-NSgSSvknty-42" target="qooXfaipe-NSgSSvknty-20">
          <mxGeometry width="100" height="100" relative="1" as="geometry">
            <mxPoint x="450" y="500" as="sourcePoint" />
            <mxPoint x="550" y="400" as="targetPoint" />
          </mxGeometry>
        </mxCell>
        <mxCell id="qooXfaipe-NSgSSvknty-46" value="" style="fontSize=12;html=1;endArrow=ERone;endFill=1;rounded=0;exitX=0.5;exitY=1;exitDx=0;exitDy=0;entryX=0.5;entryY=0;entryDx=0;entryDy=0;" edge="1" parent="1" source="qooXfaipe-NSgSSvknty-42" target="qooXfaipe-NSgSSvknty-31">
          <mxGeometry width="100" height="100" relative="1" as="geometry">
            <mxPoint x="710" y="550" as="sourcePoint" />
            <mxPoint x="720" y="490" as="targetPoint" />
          </mxGeometry>
        </mxCell>
        <mxCell id="qooXfaipe-NSgSSvknty-47" value="Producto" style="whiteSpace=wrap;html=1;align=center;" vertex="1" parent="1">
          <mxGeometry x="190" y="550" width="100" height="40" as="geometry" />
        </mxCell>
        <mxCell id="qooXfaipe-NSgSSvknty-49" value="&lt;u&gt;Nombre_Fruta&lt;/u&gt;" style="ellipse;whiteSpace=wrap;html=1;align=center;" vertex="1" parent="1">
          <mxGeometry x="290" y="630" width="100" height="40" as="geometry" />
        </mxCell>
        <mxCell id="qooXfaipe-NSgSSvknty-50" value="Precio_por_Kilo" style="ellipse;whiteSpace=wrap;html=1;align=center;" vertex="1" parent="1">
          <mxGeometry x="90" y="630" width="100" height="40" as="geometry" />
        </mxCell>
        <mxCell id="qooXfaipe-NSgSSvknty-53" value="" style="endArrow=none;html=1;rounded=0;exitX=0.75;exitY=1;exitDx=0;exitDy=0;entryX=0;entryY=0;entryDx=0;entryDy=0;" edge="1" parent="1" source="qooXfaipe-NSgSSvknty-47" target="qooXfaipe-NSgSSvknty-49">
          <mxGeometry relative="1" as="geometry">
            <mxPoint x="240" y="450" as="sourcePoint" />
            <mxPoint x="400" y="450" as="targetPoint" />
          </mxGeometry>
        </mxCell>
        <mxCell id="qooXfaipe-NSgSSvknty-54" value="" style="endArrow=none;html=1;rounded=0;exitX=1;exitY=0;exitDx=0;exitDy=0;entryX=0.25;entryY=1;entryDx=0;entryDy=0;" edge="1" parent="1" source="qooXfaipe-NSgSSvknty-50" target="qooXfaipe-NSgSSvknty-47">
          <mxGeometry relative="1" as="geometry">
            <mxPoint x="240" y="450" as="sourcePoint" />
            <mxPoint x="400" y="450" as="targetPoint" />
          </mxGeometry>
        </mxCell>
        <mxCell id="qooXfaipe-NSgSSvknty-55" value="Proovedores" style="whiteSpace=wrap;html=1;align=center;" vertex="1" parent="1">
          <mxGeometry x="-230" y="815" width="100" height="40" as="geometry" />
        </mxCell>
        <mxCell id="qooXfaipe-NSgSSvknty-56" value="Domicilio" style="ellipse;whiteSpace=wrap;html=1;align=center;" vertex="1" parent="1">
          <mxGeometry x="-330" y="900" width="100" height="40" as="geometry" />
        </mxCell>
        <mxCell id="qooXfaipe-NSgSSvknty-57" value="&lt;u&gt;Nombre_Prov&lt;/u&gt;" style="ellipse;whiteSpace=wrap;html=1;align=center;" vertex="1" parent="1">
          <mxGeometry x="-130" y="900" width="100" height="40" as="geometry" />
        </mxCell>
        <mxCell id="qooXfaipe-NSgSSvknty-58" value="Días_Reparto" style="ellipse;shape=doubleEllipse;margin=3;whiteSpace=wrap;html=1;align=center;" vertex="1" parent="1">
          <mxGeometry x="-230" y="970" width="100" height="40" as="geometry" />
        </mxCell>
        <mxCell id="qooXfaipe-NSgSSvknty-59" value="Ciudad" style="ellipse;whiteSpace=wrap;html=1;align=center;" vertex="1" parent="1">
          <mxGeometry x="-530" y="860" width="100" height="40" as="geometry" />
        </mxCell>
        <mxCell id="qooXfaipe-NSgSSvknty-60" value="Altura" style="ellipse;whiteSpace=wrap;html=1;align=center;" vertex="1" parent="1">
          <mxGeometry x="-430" y="970" width="100" height="40" as="geometry" />
        </mxCell>
        <mxCell id="qooXfaipe-NSgSSvknty-61" value="Calle" style="ellipse;whiteSpace=wrap;html=1;align=center;" vertex="1" parent="1">
          <mxGeometry x="-430" y="840" width="100" height="40" as="geometry" />
        </mxCell>
        <mxCell id="qooXfaipe-NSgSSvknty-62" value="" style="endArrow=none;html=1;rounded=0;exitX=1;exitY=1;exitDx=0;exitDy=0;entryX=0;entryY=0.5;entryDx=0;entryDy=0;" edge="1" parent="1" source="qooXfaipe-NSgSSvknty-59" target="qooXfaipe-NSgSSvknty-56">
          <mxGeometry relative="1" as="geometry">
            <mxPoint x="-420" y="980" as="sourcePoint" />
            <mxPoint x="-260" y="980" as="targetPoint" />
          </mxGeometry>
        </mxCell>
        <mxCell id="qooXfaipe-NSgSSvknty-63" value="" style="endArrow=none;html=1;rounded=0;entryX=0;entryY=0;entryDx=0;entryDy=0;exitX=1;exitY=1;exitDx=0;exitDy=0;" edge="1" parent="1" source="qooXfaipe-NSgSSvknty-61" target="qooXfaipe-NSgSSvknty-56">
          <mxGeometry relative="1" as="geometry">
            <mxPoint x="-420" y="980" as="sourcePoint" />
            <mxPoint x="-260" y="980" as="targetPoint" />
          </mxGeometry>
        </mxCell>
        <mxCell id="qooXfaipe-NSgSSvknty-64" value="" style="endArrow=none;html=1;rounded=0;exitX=1;exitY=0;exitDx=0;exitDy=0;entryX=0;entryY=1;entryDx=0;entryDy=0;" edge="1" parent="1" source="qooXfaipe-NSgSSvknty-60" target="qooXfaipe-NSgSSvknty-56">
          <mxGeometry relative="1" as="geometry">
            <mxPoint x="-420" y="980" as="sourcePoint" />
            <mxPoint x="-260" y="980" as="targetPoint" />
          </mxGeometry>
        </mxCell>
        <mxCell id="qooXfaipe-NSgSSvknty-65" value="País" style="ellipse;whiteSpace=wrap;html=1;align=center;" vertex="1" parent="1">
          <mxGeometry x="-530" y="945" width="100" height="40" as="geometry" />
        </mxCell>
        <mxCell id="qooXfaipe-NSgSSvknty-66" value="" style="endArrow=none;html=1;rounded=0;entryX=1;entryY=0;entryDx=0;entryDy=0;exitX=0;exitY=0.5;exitDx=0;exitDy=0;" edge="1" parent="1" source="qooXfaipe-NSgSSvknty-56" target="qooXfaipe-NSgSSvknty-65">
          <mxGeometry relative="1" as="geometry">
            <mxPoint x="-420" y="980" as="sourcePoint" />
            <mxPoint x="-260" y="980" as="targetPoint" />
          </mxGeometry>
        </mxCell>
        <mxCell id="qooXfaipe-NSgSSvknty-68" value="" style="endArrow=none;html=1;rounded=0;exitX=0.25;exitY=1;exitDx=0;exitDy=0;entryX=1;entryY=0;entryDx=0;entryDy=0;" edge="1" parent="1" source="qooXfaipe-NSgSSvknty-55" target="qooXfaipe-NSgSSvknty-56">
          <mxGeometry relative="1" as="geometry">
            <mxPoint x="-420" y="980" as="sourcePoint" />
            <mxPoint x="-260" y="980" as="targetPoint" />
          </mxGeometry>
        </mxCell>
        <mxCell id="qooXfaipe-NSgSSvknty-69" value="" style="endArrow=none;html=1;rounded=0;entryX=0;entryY=0;entryDx=0;entryDy=0;exitX=0.75;exitY=1;exitDx=0;exitDy=0;" edge="1" parent="1" source="qooXfaipe-NSgSSvknty-55" target="qooXfaipe-NSgSSvknty-57">
          <mxGeometry relative="1" as="geometry">
            <mxPoint x="-420" y="980" as="sourcePoint" />
            <mxPoint x="-260" y="980" as="targetPoint" />
          </mxGeometry>
        </mxCell>
        <mxCell id="qooXfaipe-NSgSSvknty-70" value="" style="endArrow=none;html=1;rounded=0;exitX=0.5;exitY=1;exitDx=0;exitDy=0;entryX=0.5;entryY=0;entryDx=0;entryDy=0;" edge="1" parent="1" source="qooXfaipe-NSgSSvknty-55" target="qooXfaipe-NSgSSvknty-58">
          <mxGeometry relative="1" as="geometry">
            <mxPoint x="-420" y="980" as="sourcePoint" />
            <mxPoint x="-260" y="980" as="targetPoint" />
          </mxGeometry>
        </mxCell>
        <mxCell id="qooXfaipe-NSgSSvknty-71" value="" style="fontSize=12;html=1;endArrow=ERmany;rounded=0;entryX=0.5;entryY=0;entryDx=0;entryDy=0;" edge="1" parent="1" target="qooXfaipe-NSgSSvknty-55">
          <mxGeometry width="100" height="100" relative="1" as="geometry">
            <mxPoint x="-180" y="750" as="sourcePoint" />
            <mxPoint x="-290" y="690" as="targetPoint" />
          </mxGeometry>
        </mxCell>
        <mxCell id="qooXfaipe-NSgSSvknty-72" value="Abastece" style="shape=rhombus;perimeter=rhombusPerimeter;whiteSpace=wrap;html=1;align=center;" vertex="1" parent="1">
          <mxGeometry x="-240" y="690" width="120" height="60" as="geometry" />
        </mxCell>
        <mxCell id="qooXfaipe-NSgSSvknty-76" value="" style="fontSize=12;html=1;endArrow=ERmany;rounded=0;entryX=1;entryY=0.5;entryDx=0;entryDy=0;" edge="1" parent="1" target="qooXfaipe-NSgSSvknty-47">
          <mxGeometry width="100" height="100" relative="1" as="geometry">
            <mxPoint x="380" y="570" as="sourcePoint" />
            <mxPoint x="460" y="570" as="targetPoint" />
          </mxGeometry>
        </mxCell>
        <mxCell id="qooXfaipe-NSgSSvknty-77" value="Contiene" style="shape=rhombus;perimeter=rhombusPerimeter;whiteSpace=wrap;html=1;align=center;" vertex="1" parent="1">
          <mxGeometry x="380" y="540" width="120" height="60" as="geometry" />
        </mxCell>
        <mxCell id="qooXfaipe-NSgSSvknty-79" value="" style="fontSize=12;html=1;endArrow=ERone;endFill=1;rounded=0;exitX=1;exitY=0.5;exitDx=0;exitDy=0;entryX=0;entryY=0.5;entryDx=0;entryDy=0;" edge="1" parent="1" source="qooXfaipe-NSgSSvknty-77" target="qooXfaipe-NSgSSvknty-31">
          <mxGeometry width="100" height="100" relative="1" as="geometry">
            <mxPoint x="360" y="670" as="sourcePoint" />
            <mxPoint x="460" y="570" as="targetPoint" />
          </mxGeometry>
        </mxCell>
        <mxCell id="qooXfaipe-NSgSSvknty-85" value="Pedido_Prod" style="whiteSpace=wrap;html=1;align=center;" vertex="1" parent="1">
          <mxGeometry x="-230" y="550" width="100" height="40" as="geometry" />
        </mxCell>
        <mxCell id="qooXfaipe-NSgSSvknty-87" value="&lt;u&gt;Nombre_Prod_Faltante&lt;/u&gt;" style="ellipse;whiteSpace=wrap;html=1;align=center;" vertex="1" parent="1">
          <mxGeometry x="-360" y="430" width="140" height="60" as="geometry" />
        </mxCell>
        <mxCell id="qooXfaipe-NSgSSvknty-88" value="" style="endArrow=none;html=1;rounded=0;exitX=1;exitY=1;exitDx=0;exitDy=0;entryX=0.25;entryY=0;entryDx=0;entryDy=0;" edge="1" parent="1" source="qooXfaipe-NSgSSvknty-87" target="qooXfaipe-NSgSSvknty-85">
          <mxGeometry relative="1" as="geometry">
            <mxPoint x="-190" y="610" as="sourcePoint" />
            <mxPoint x="-30" y="610" as="targetPoint" />
          </mxGeometry>
        </mxCell>
        <mxCell id="qooXfaipe-NSgSSvknty-91" value="Realizar" style="shape=rhombus;perimeter=rhombusPerimeter;whiteSpace=wrap;html=1;align=center;" vertex="1" parent="1">
          <mxGeometry x="-60" y="540" width="120" height="60" as="geometry" />
        </mxCell>
        <mxCell id="qooXfaipe-NSgSSvknty-92" value="" style="fontSize=12;html=1;endArrow=ERone;endFill=1;rounded=0;entryX=0;entryY=0.5;entryDx=0;entryDy=0;exitX=1;exitY=0.5;exitDx=0;exitDy=0;" edge="1" parent="1" source="qooXfaipe-NSgSSvknty-91" target="qooXfaipe-NSgSSvknty-47">
          <mxGeometry width="100" height="100" relative="1" as="geometry">
            <mxPoint x="-80" y="700" as="sourcePoint" />
            <mxPoint x="20" y="600" as="targetPoint" />
          </mxGeometry>
        </mxCell>
        <mxCell id="qooXfaipe-NSgSSvknty-93" value="" style="fontSize=12;html=1;endArrow=ERone;endFill=1;rounded=0;entryX=1;entryY=0.5;entryDx=0;entryDy=0;exitX=0;exitY=0.5;exitDx=0;exitDy=0;" edge="1" parent="1" source="qooXfaipe-NSgSSvknty-91" target="qooXfaipe-NSgSSvknty-85">
          <mxGeometry width="100" height="100" relative="1" as="geometry">
            <mxPoint x="70" y="580" as="sourcePoint" />
            <mxPoint x="200" y="580" as="targetPoint" />
          </mxGeometry>
        </mxCell>
        <mxCell id="qooXfaipe-NSgSSvknty-94" value="" style="fontSize=12;html=1;endArrow=ERone;endFill=1;rounded=0;exitX=0.5;exitY=0;exitDx=0;exitDy=0;entryX=0.5;entryY=1;entryDx=0;entryDy=0;" edge="1" parent="1" source="qooXfaipe-NSgSSvknty-72" target="qooXfaipe-NSgSSvknty-85">
          <mxGeometry width="100" height="100" relative="1" as="geometry">
            <mxPoint x="-160" y="870" as="sourcePoint" />
            <mxPoint x="-60" y="770" as="targetPoint" />
          </mxGeometry>
        </mxCell>
      </root>
    </mxGraphModel>
  </diagram>
</mxfile>
